<?xml version="1.0" encoding="UTF-8" standalone="no"?>
<!-- Created with Inkscape (http://www.inkscape.org/) -->

<svg
   xmlns:dc="http://purl.org/dc/elements/1.1/"
   xmlns:cc="http://creativecommons.org/ns#"
   xmlns:rdf="http://www.w3.org/1999/02/22-rdf-syntax-ns#"
   xmlns:svg="http://www.w3.org/2000/svg"
   xmlns="http://www.w3.org/2000/svg"
   xmlns:inkscape="http://www.inkscape.org/namespaces/inkscape"
   version="1.1"
   width="293.27499"
   height="68.599998"
   id="svg2"
   xml:space="preserve"><metadata
     id="metadata8"><rdf:RDF><cc:Work
         rdf:about=""><dc:format>image/svg+xml</dc:format><dc:type
           rdf:resource="http://purl.org/dc/dcmitype/StillImage" /></cc:Work></rdf:RDF></metadata><defs
     id="defs6"><clipPath
       id="clipPath18"><path
         d="m 0,0 2346,0 0,548.809 -2346,0 L 0,0 z"
         inkscape:connector-curvature="0"
         id="path20" /></clipPath></defs><g
     transform="matrix(1.25,0,0,-1.25,0,68.6)"
     id="g10"><g
       transform="scale(0.1,0.1)"
       id="g12"><g
         id="g14"><g
           clip-path="url(#clipPath18)"
           id="g16"><path
             d="m 3.26172,5.44922 0,9.78518 c 10.87498,0.0976 18.02348,0.9179 21.43748,2.4804 1.4492,0.625 2.4844,1.6016 3.1016,2.9493 1.043,2.0703 1.7656,7.5 2.1797,16.3086 0.625,13.6718 0.9336,25.4687 0.9336,35.4101 l 0,79.3942 c 0,14.082 -0.1563,27.852 -0.4649,41.309 -0.3125,9.844 -1.0898,15.644 -2.3359,17.402 -1.1367,1.856 -3.0547,3.203 -5.7461,4.043 C 19.7773,215.449 12.3203,216.016 0,216.23 l 0,9.942 44.2734,-0.938 46.9141,0.782 c 22.4645,0.312 38.7735,0.468 48.9295,0.468 10.25,0 19.926,-0.566 29.043,-1.699 -1.66,-5.918 -2.793,-11.035 -3.414,-15.39 -0.211,-0.938 -1.141,-11.7 -2.797,-32.305 l -9.785,0 c 0.102,10.566 -0.57,20.195 -2.019,28.887 -5.7,2.382 -11.961,3.984 -18.797,4.824 -11.602,1.445 -23.2,2.168 -34.7933,2.168 -2.4844,0 -8.0274,-0.215 -16.6211,-0.625 -8.5977,-0.41 -14.7578,-0.762 -18.4883,-1.074 -0.4141,-11.504 -0.7265,-22.266 -0.9297,-32.325 l -0.6211,-52.5 c 12.1133,-0.625 23.2461,-0.937 33.3985,-0.937 12.316,0 22.824,0.586 31.531,1.719 3.313,0.41 5.43,1.23 6.367,2.48 0.934,1.25 1.758,5.488 2.489,12.734 l 0.929,10.879 9.325,0 0,-2.949 -0.778,-32.305 0.778,-36.191 -10.875,0 -0.469,10.5469 c -0.207,7.6761 -0.934,12.4221 -2.176,14.2971 -1.141,1.875 -3.367,3.164 -6.68,3.886 -5.902,1.25 -17.347,1.856 -34.3278,1.856 -6.9374,0 -16.7734,-0.254 -29.5117,-0.762 -0.5195,-10.371 -0.7773,-25.742 -0.7773,-46.1326 0,-19.1602 0.2578,-33.7109 0.7773,-43.6523 14.9102,-1.1524 31.6367,-1.7188 50.1675,-1.7188 13.157,0 22.524,0.4102 28.122,1.25 5.589,0.8203 10.765,2.2266 15.535,4.1992 1.238,3.2032 2.484,7.5391 3.722,13.0469 2.282,9.1992 3.782,16.1524 4.508,20.8008 l 10.254,0 C 170.508,38.5742 169.16,21.2305 169.16,7.46094 160.254,6.11328 149.434,5.44922 136.699,5.44922 L 43.9609,6.67969 c -1.3476,0 -14.914,-0.41016 -40.69918,-1.23047 l 0,0"
             inkscape:connector-curvature="0"
             id="path22"
             style="fill:#f03c1f;fill-opacity:1;fill-rule:nonzero;stroke:none" /><path
             d="m 221.391,5.44922 0,10.25388 c 7.246,0 12.011,0.4492 14.293,1.3867 2.378,1.0352 5.273,3.5743 8.695,7.6172 3.418,4.043 11.187,14.5508 23.301,31.5235 l 42.41,58.7305 -27.496,46.758 c -2.383,3.926 -7.145,10.957 -14.293,21.113 -7.039,10.254 -13.258,18.027 -18.637,23.301 -2.281,2.07 -4.406,3.418 -6.367,4.043 -1.867,0.625 -7.668,0.937 -17.399,0.937 l 0,9.004 45.356,7.461 c 3.934,-2.695 7.609,-6.211 11.031,-10.566 4.863,-6.211 11.699,-16.934 20.504,-32.149 l 26.098,-45.215 c 31.789,45.157 48.199,69.844 49.238,74.102 l 0,12.422 c 11.187,-0.41 18.848,-0.625 22.992,-0.625 4.141,0 10.403,0.215 18.793,0.625 l 0,-9.473 c -6.519,-0.312 -10.613,-0.722 -12.273,-1.25 -1.657,-0.41 -3.157,-1.035 -4.5,-1.855 -1.867,-1.25 -4.614,-3.985 -8.235,-8.242 -3.629,-4.239 -10.3,-12.93 -20.039,-26.094 -9.734,-13.145 -18.691,-25.313 -26.875,-36.504 L 336.344,127.227 389,42.1094 c 6.836,-11.0938 11.906,-18.4375 15.223,-22.0703 1.554,-1.7579 3.261,-2.8907 5.129,-3.418 1.859,-0.5078 6.21,-0.8203 13.046,-0.918 l 0,-10.25388 c -11.289,0.41016 -18.902,0.60547 -22.836,0.60547 -4.347,0 -12.066,-0.19531 -23.144,-0.60547 -6.215,9.31638 -11.965,18.47658 -17.242,27.48048 L 318.32,102.676 298.594,74.7266 C 279.121,45.7227 267.371,26.3672 263.328,16.6211 L 263.023,5.44922 c -10.773,0.41016 -18.019,0.60547 -21.75,0.60547 -2.484,0 -9.117,-0.19531 -19.882,-0.60547 l 0,0"
             inkscape:connector-curvature="0"
             id="path24"
             style="fill:#f03c1f;fill-opacity:1;fill-rule:nonzero;stroke:none" /><path
             d="M 675.48,32.9297 669.418,18.4961 C 657.305,12.3828 645.445,7.96875 633.848,5.29297 622.246,2.5 609.613,1.09375 595.941,1.09375 c -16.046,0 -30.961,2.01172 -44.734,6.05469 -13.773,4.04296 -25.84,9.78516 -36.195,17.24606 -10.25,7.5586 -18.641,15.9961 -25.164,25.3125 -6.524,9.336 -11.493,19.4141 -14.91,30.293 -3.418,10.9766 -5.129,22.988 -5.129,36.035 0,33.047 11.496,60.371 34.488,82.031 23.09,21.739 54.57,32.618 94.441,32.618 9.426,0 18.121,-0.586 26.098,-1.719 8.078,-1.035 17.863,-3.106 29.359,-6.211 11.598,-3.008 18.692,-4.766 21.285,-5.274 -2.289,-5.703 -3.996,-11.289 -5.128,-16.777 -1.661,-8.808 -2.797,-19.004 -3.418,-30.605 l -9.786,0 -0.156,18.34 c -1.039,10.136 -6.68,17.695 -16.933,22.675 -10.153,4.961 -25.063,7.442 -44.739,7.442 -14.707,-0.196 -27.179,-2.11 -37.433,-5.743 -10.25,-3.515 -19.317,-9.16 -27.184,-16.933 -7.769,-7.656 -14.137,-17.441 -19.105,-29.356 -4.973,-11.796 -7.512,-26.66 -7.614,-44.57 0,-31.3866 9.578,-56.66 28.743,-75.8202 19.148,-19.043 44.468,-28.5742 75.957,-28.5742 14.183,0 27.332,1.9726 39.453,5.8984 8.281,2.6953 16.515,6.9336 24.695,12.7344 l 2.648,-3.2617 0,0"
             inkscape:connector-curvature="0"
             id="path26"
             style="fill:#f03c1f;fill-opacity:1;fill-rule:nonzero;stroke:none" /><path
             d="m 725.375,5.44922 0,9.78518 c 10.875,0.0976 18.02,0.9179 21.437,2.4804 1.446,0.625 2.481,1.6016 3.106,2.9493 1.035,2.0703 1.758,7.5 2.176,16.3086 0.621,13.6718 0.933,25.4687 0.933,35.4101 l 0,79.3942 c 0,14.082 -0.156,27.852 -0.468,41.309 -0.313,9.844 -1.082,15.644 -2.329,17.402 -1.144,1.856 -3.058,3.203 -5.75,4.043 -2.589,0.918 -10.046,1.485 -22.367,1.699 l 0,9.942 44.274,-0.938 46.91,0.782 c 22.469,0.312 38.777,0.468 48.93,0.468 10.253,0 19.929,-0.566 29.046,-1.699 -1.66,-5.918 -2.796,-11.035 -3.418,-15.39 -0.21,-0.938 -1.136,-11.7 -2.796,-32.305 l -9.786,0 c 0.102,10.566 -0.57,20.195 -2.019,28.887 -5.695,2.382 -11.961,3.984 -18.797,4.824 -11.602,1.445 -23.195,2.168 -34.793,2.168 -2.484,0 -8.027,-0.215 -16.621,-0.625 -8.602,-0.41 -14.758,-0.762 -18.481,-1.074 -0.421,-11.504 -0.734,-22.266 -0.933,-32.325 l -0.625,-52.5 c 12.117,-0.625 23.246,-0.937 33.398,-0.937 12.321,0 22.832,0.586 31.532,1.719 3.312,0.41 5.433,1.23 6.375,2.48 0.925,1.25 1.75,5.488 2.476,12.734 l 0.942,10.879 9.316,0 0,-2.949 -0.777,-32.305 0.777,-36.191 -10.875,0 -0.465,10.5469 c -0.211,7.6761 -0.933,12.4221 -2.18,14.2971 -1.136,1.875 -3.363,3.164 -6.671,3.886 -5.907,1.25 -17.356,1.856 -34.332,1.856 -6.946,0 -16.778,-0.254 -29.516,-0.762 -0.52,-10.371 -0.777,-25.742 -0.777,-46.1326 0,-19.1602 0.257,-33.7109 0.777,-43.6523 14.91,-1.1524 31.637,-1.7188 50.176,-1.7188 13.148,0 22.519,0.4102 28.113,1.25 5.594,0.8203 10.769,2.2266 15.531,4.1992 1.246,3.2032 2.488,7.5391 3.735,13.0469 2.273,9.1992 3.773,16.1524 4.5,20.8008 l 10.253,0 C 892.617,38.5742 891.273,21.2305 891.273,7.46094 882.367,6.11328 871.547,5.44922 858.809,5.44922 l -92.735,1.23047 c -1.347,0 -14.914,-0.41016 -40.699,-1.23047 l 0,0"
             inkscape:connector-curvature="0"
             id="path28"
             style="fill:#f03c1f;fill-opacity:1;fill-rule:nonzero;stroke:none" /><path
             d="m 958.414,5.44922 0,8.06638 c 6.422,3.0078 10.512,5.3906 12.274,7.1485 1.035,0.9375 1.757,2.1289 2.171,3.5742 0.934,2.8906 1.555,9.1015 1.868,18.6328 0.414,14.1992 0.617,22.6367 0.621,25.332 l 0,83.5739 c 0,14.082 -0.157,27.852 -0.465,41.309 -0.313,9.844 -1.09,15.644 -2.328,17.402 -1.145,1.856 -3.063,3.203 -5.746,4.043 -2.598,0.918 -10.051,1.485 -22.375,1.699 l 0,9.942 c 25.269,-0.82 40.902,-1.231 46.914,-1.231 6.625,0 21.482,0.411 44.582,1.231 l 0,-9.942 c -12.33,-0.214 -19.84,-0.781 -22.52,-1.699 -2.6,-0.84 -4.41,-2.031 -5.44,-3.574 -1.24,-2.07 -2.02,-7.109 -2.34,-15.078 -0.1,-2.07 -0.3,-16.777 -0.62,-44.102 l 0,-104.3942 c 0,-10.8789 0.21,-19.7266 0.62,-26.5625 11.81,-0.7226 23.51,-1.0937 35.11,-1.0937 29.21,0 49.66,1.875 61.36,5.6054 1.35,3.1055 2.54,6.6797 3.57,10.7032 l 6.22,25.8007 10.4,0 c -2.28,-15.4297 -4.5,-33.5547 -6.67,-54.37496 -4.25,-0.82032 -7.62,-1.34766 -10.1,-1.54297 -5.39,-0.3125 -13.67,-0.46875 -24.86,-0.46875 l -91.953,1.23047 c -9.941,0 -20.039,-0.41016 -30.293,-1.23047 l 0,0"
             inkscape:connector-curvature="0"
             id="path30"
             style="fill:#f03c1f;fill-opacity:1;fill-rule:nonzero;stroke:none" /><path
             d="m 1182.75,5.44922 0,8.06638 c 6.43,3.0078 10.52,5.3906 12.28,7.1485 1.03,0.9375 1.76,2.1289 2.18,3.5742 0.92,2.8906 1.55,9.1015 1.85,18.6328 0.42,14.1992 0.63,22.6367 0.63,25.332 l 0,83.5739 c 0,14.082 -0.16,27.852 -0.47,41.309 -0.3,9.844 -1.09,15.644 -2.33,17.402 -1.14,1.856 -3.05,3.203 -5.75,4.043 -2.59,0.918 -10.04,1.485 -22.36,1.699 l 0,9.942 c 25.26,-0.82 40.9,-1.231 46.9,-1.231 6.63,0 21.5,0.411 44.59,1.231 l 0,-9.942 c -12.32,-0.214 -19.83,-0.781 -22.53,-1.699 -2.58,-0.84 -4.4,-2.031 -5.43,-3.574 -1.25,-2.07 -2.02,-7.109 -2.33,-15.078 -0.11,-2.07 -0.31,-16.777 -0.62,-44.102 l 0,-104.3942 c 0,-10.8789 0.2,-19.7266 0.62,-26.5625 11.81,-0.7226 23.51,-1.0937 35.11,-1.0937 29.2,0 49.65,1.875 61.36,5.6054 1.33,3.1055 2.52,6.6797 3.57,10.7032 l 6.21,25.8007 10.41,0 c -2.28,-15.4297 -4.51,-33.5547 -6.68,-54.37496 -4.25,-0.82032 -7.62,-1.34766 -10.1,-1.54297 -5.39,-0.3125 -13.67,-0.46875 -24.85,-0.46875 l -91.96,1.23047 c -9.94,0 -20.04,-0.41016 -30.3,-1.23047 l 0,0"
             inkscape:connector-curvature="0"
             id="path32"
             style="fill:#f03c1f;fill-opacity:1;fill-rule:nonzero;stroke:none" /><path
             d="m 1398.4,5.44922 0,9.78518 c 10.88,0.0976 18.02,0.9179 21.43,2.4804 1.46,0.625 2.48,1.6016 3.11,2.9493 1.03,2.0703 1.76,7.5 2.18,16.3086 0.62,13.6718 0.92,25.4687 0.92,35.4101 l 0,79.3942 c 0,14.082 -0.14,27.852 -0.45,41.309 -0.32,9.844 -1.09,15.644 -2.34,17.402 -1.14,1.856 -3.05,3.203 -5.74,4.043 -2.6,0.918 -10.05,1.485 -22.37,1.699 l 0,9.942 44.26,-0.938 46.92,0.782 c 22.47,0.312 38.78,0.468 48.93,0.468 10.26,0 19.94,-0.566 29.05,-1.699 -1.66,-5.918 -2.8,-11.035 -3.42,-15.39 -0.21,-0.938 -1.13,-11.7 -2.79,-32.305 l -9.79,0 c 0.1,10.566 -0.58,20.195 -2.02,28.887 -5.69,2.382 -11.96,3.984 -18.79,4.824 -11.61,1.445 -23.2,2.168 -34.8,2.168 -2.48,0 -8.03,-0.215 -16.62,-0.625 -8.6,-0.41 -14.76,-0.762 -18.48,-1.074 -0.42,-11.504 -0.73,-22.266 -0.94,-32.325 l -0.61,-52.5 c 12.1,-0.625 23.24,-0.937 33.38,-0.937 12.33,0 22.84,0.586 31.54,1.719 3.31,0.41 5.44,1.23 6.37,2.48 0.93,1.25 1.76,5.488 2.48,12.734 l 0.93,10.879 9.33,0 0,-2.949 -0.78,-32.305 0.78,-36.191 -10.88,0 -0.46,10.5469 c -0.21,7.6761 -0.94,12.4221 -2.18,14.2971 -1.14,1.875 -3.37,3.164 -6.68,3.886 -5.9,1.25 -17.35,1.856 -34.32,1.856 -6.95,0 -16.78,-0.254 -29.51,-0.762 -0.53,-10.371 -0.79,-25.742 -0.79,-46.1326 0,-19.1602 0.26,-33.7109 0.79,-43.6523 14.9,-1.1524 31.63,-1.7188 50.16,-1.7188 13.16,0 22.52,0.4102 28.12,1.25 5.59,0.8203 10.77,2.2266 15.53,4.1992 1.24,3.2032 2.49,7.5391 3.73,13.0469 2.28,9.1992 3.77,16.1524 4.51,20.8008 l 10.25,0 c -2.7,-20.918 -4.04,-38.2617 -4.04,-52.03126 -8.91,-1.34766 -19.73,-2.01172 -32.46,-2.01172 l -92.74,1.23047 c -1.35,0 -14.91,-0.41016 -40.7,-1.23047 l 0,0"
             inkscape:connector-curvature="0"
             id="path34"
             style="fill:#f03c1f;fill-opacity:1;fill-rule:nonzero;stroke:none" /><path
             d="m 1620.57,5.44922 0,9.78518 c 10.88,0.0976 18.01,0.9179 21.43,2.4804 1.45,0.625 2.48,1.6016 3.11,2.9493 1.03,2.0703 1.76,7.5 2.18,16.3086 0.62,13.6718 0.93,25.4687 0.93,35.4101 l 0,126.6012 c 0,3.418 -0.21,5.645 -0.62,6.68 -0.83,1.875 -2.7,4.102 -5.6,6.68 -1.86,1.66 -4.03,2.695 -6.52,3.105 -2.38,0.528 -7.77,0.84 -16.15,0.938 l 0,9.785 c 17.29,-0.41 28.16,-0.625 32.61,-0.625 7.56,0 15.07,0.215 22.53,0.625 8.8,-11.484 15.27,-19.981 19.42,-25.469 l 32.15,-39.609 46.91,-56.543 c 15.02,-18.0276 27.08,-32.2072 36.2,-42.5588 5.79,-6.836 10.66,-12.2266 14.6,-16.1719 l 0,113.5547 c 0,10.156 -0.37,22.051 -1.09,35.723 -0.41,8.593 -1.09,13.945 -2.02,16.015 -0.73,1.348 -1.81,2.325 -3.26,2.949 -3.42,1.446 -10.51,2.227 -21.29,2.325 l 0,9.785 c 12.23,-0.41 24.6,-0.625 37.13,-0.625 11.81,0 22.52,0.215 32.16,0.625 l 0,-9.785 c -10.77,-0.098 -17.87,-0.879 -21.28,-2.325 -1.45,-0.624 -2.49,-1.66 -3.11,-3.105 -1.04,-1.973 -1.76,-7.422 -2.17,-16.309 -0.63,-13.671 -0.94,-25.429 -0.94,-35.273 l 0,-74.707 c 0,-15.1172 0.26,-43.3399 0.78,-84.668 l -16,4.66797 -3.72,0.78125 c -0.63,0.19531 -1.21,0.50781 -1.71,0.91797 -0.74,0.52734 -2.7,2.59765 -5.91,6.21091 -8.6,9.7461 -14.91,17.0899 -18.95,22.0703 l -20.04,25.3125 -110.13,131.5821 0,-119.1602 c 0,-10.1367 0.36,-22.1094 1.08,-35.8789 0.41,-8.5937 1.09,-13.8672 2.02,-15.8398 0.73,-1.4453 1.82,-2.4805 3.26,-3.1055 3.42,-1.4453 10.51,-2.2266 21.28,-2.3242 l 0,-9.78518 c -9.11,0.72266 -19.16,1.07422 -30.13,1.07422 -12.01,0 -25.06,-0.35156 -39.14,-1.07422 l 0,0"
             inkscape:connector-curvature="0"
             id="path36"
             style="fill:#f03c1f;fill-opacity:1;fill-rule:nonzero;stroke:none" /><path
             d="m 2122.8,32.9297 -6.05,-14.4336 C 2104.63,12.3828 2092.77,7.96875 2081.17,5.29297 2069.57,2.5 2056.94,1.09375 2043.27,1.09375 c -16.05,0 -30.97,2.01172 -44.73,6.05469 -13.78,4.04296 -25.84,9.78516 -36.2,17.24606 -10.25,7.5586 -18.64,15.9961 -25.16,25.3125 -6.53,9.336 -11.5,19.4141 -14.91,30.293 -3.42,10.9766 -5.13,22.988 -5.13,36.035 0,33.047 11.49,60.371 34.48,82.031 23.1,21.739 54.58,32.618 94.45,32.618 9.42,0 18.12,-0.586 26.1,-1.719 8.07,-1.035 17.86,-3.106 29.35,-6.211 11.61,-3.008 18.69,-4.766 21.28,-5.274 -2.27,-5.703 -3.98,-11.289 -5.12,-16.777 -1.66,-8.808 -2.8,-19.004 -3.42,-30.605 l -9.79,0 -0.15,18.34 c -1.04,10.136 -6.68,17.695 -16.93,22.675 -10.15,4.961 -25.07,7.442 -44.73,7.442 -14.72,-0.196 -27.19,-2.11 -37.45,-5.743 -10.25,-3.515 -19.31,-9.16 -27.18,-16.933 -7.77,-7.656 -14.13,-17.441 -19.1,-29.356 -4.97,-11.796 -7.51,-26.66 -7.61,-44.57 0,-31.3866 9.57,-56.66 28.73,-75.8202 19.16,-19.043 44.47,-28.5742 75.97,-28.5742 14.18,0 27.33,1.9726 39.45,5.8984 8.28,2.6953 16.51,6.9336 24.7,12.7344 l 2.63,-3.2617 0,0"
             inkscape:connector-curvature="0"
             id="path38"
             style="fill:#f03c1f;fill-opacity:1;fill-rule:nonzero;stroke:none" /><path
             d="m 2172.71,5.44922 0,9.78518 c 10.86,0.0976 18.01,0.9179 21.43,2.4804 1.45,0.625 2.48,1.6016 3.11,2.9493 1.03,2.0703 1.75,7.5 2.17,16.3086 0.62,13.6718 0.93,25.4687 0.93,35.4101 l 0,79.3942 c 0,14.082 -0.15,27.852 -0.46,41.309 -0.31,9.844 -1.09,15.644 -2.33,17.402 -1.14,1.856 -3.06,3.203 -5.75,4.043 -2.59,0.918 -10.04,1.485 -22.37,1.699 l 0,9.942 44.27,-0.938 46.92,0.782 c 22.47,0.312 38.77,0.468 48.93,0.468 10.24,0 19.93,-0.566 29.04,-1.699 -1.66,-5.918 -2.79,-11.035 -3.41,-15.39 -0.21,-0.938 -1.15,-11.7 -2.8,-32.305 l -9.78,0 c 0.1,10.566 -0.58,20.195 -2.02,28.887 -5.71,2.382 -11.97,3.984 -18.8,4.824 -11.6,1.445 -23.2,2.168 -34.8,2.168 -2.48,0 -8.03,-0.215 -16.62,-0.625 -8.59,-0.41 -14.75,-0.762 -18.49,-1.074 -0.41,-11.504 -0.72,-22.266 -0.92,-32.325 l -0.63,-52.5 c 12.12,-0.625 23.25,-0.937 33.4,-0.937 12.32,0 22.83,0.586 31.53,1.719 3.31,0.41 5.43,1.23 6.37,2.48 0.94,1.25 1.76,5.488 2.49,12.734 l 0.93,10.879 9.33,0 0,-2.949 -0.79,-32.305 0.79,-36.191 -10.88,0 -0.47,10.5469 c -0.21,7.6761 -0.93,12.4221 -2.17,14.2971 -1.14,1.875 -3.37,3.164 -6.68,3.886 -5.91,1.25 -17.35,1.856 -34.33,1.856 -6.94,0 -16.77,-0.254 -29.52,-0.762 -0.52,-10.371 -0.77,-25.742 -0.77,-46.1326 0,-19.1602 0.25,-33.7109 0.77,-43.6523 14.91,-1.1524 31.64,-1.7188 50.18,-1.7188 13.15,0 22.52,0.4102 28.11,1.25 5.6,0.8203 10.77,2.2266 15.54,4.1992 1.24,3.2032 2.48,7.5391 3.73,13.0469 2.28,9.1992 3.77,16.1524 4.5,20.8008 l 10.26,0 c -2.7,-20.918 -4.05,-38.2617 -4.05,-52.03126 -8.9,-1.34766 -19.72,-2.01172 -32.46,-2.01172 l -92.74,1.23047 c -1.35,0 -14.91,-0.41016 -40.69,-1.23047 l 0,0"
             inkscape:connector-curvature="0"
             id="path40"
             style="fill:#f03c1f;fill-opacity:1;fill-rule:nonzero;stroke:none" /><path
             d="m 208.93,351.066 -6.059,-14.445 c -12.117,-6.113 -23.976,-10.516 -35.57,-13.207 -11.602,-2.793 -24.235,-4.191 -37.906,-4.191 -16.051,0 -30.9614,2.019 -44.7348,6.054 -13.7774,4.039 -25.8399,9.785 -36.1914,17.243 -10.254,7.558 -18.6446,15.996 -25.168,25.324 -6.5235,9.32 -11.4961,19.418 -14.91408,30.293 -3.41797,10.968 -5.125,22.98 -5.125,36.035 0,33.031 11.49998,60.371 34.48828,82.016 23.0898,21.746 54.5703,32.621 94.441,32.621 9.426,0 18.121,-0.571 26.098,-1.707 8.078,-1.043 17.863,-3.106 29.356,-6.211 11.597,-3.008 18.695,-4.774 21.285,-5.286 -2.285,-5.699 -3.992,-11.289 -5.125,-16.777 -1.66,-8.805 -2.797,-19.004 -3.418,-30.601 l -9.785,0 -0.157,18.332 c -1.043,10.144 -6.679,17.703 -16.933,22.679 -10.153,4.973 -25.067,7.457 -44.739,7.457 -14.707,-0.211 -27.179,-2.129 -37.4332,-5.754 -10.25,-3.519 -19.3125,-9.16 -27.1836,-16.925 -7.7695,-7.668 -14.1367,-17.454 -19.1093,-29.364 -4.9688,-11.8 -7.5078,-26.668 -7.6094,-44.578 0,-31.379 9.5781,-56.652 28.7383,-75.804 19.1523,-19.059 44.4722,-28.582 75.9572,-28.582 14.183,0 27.336,1.964 39.453,5.898 8.285,2.691 16.519,6.941 24.703,12.742 l 2.641,-3.262 0,0"
             inkscape:connector-curvature="0"
             id="path42"
             style="fill:#918f90;fill-opacity:1;fill-rule:nonzero;stroke:none" /><path
             d="m 344.18,410.715 78.441,0 -38.832,93.672 -39.609,-93.672 0,0 z m -72.231,-87.145 0,10.567 c 8.18,0.097 13.25,0.41 15.219,0.925 2.07,0.626 3.937,1.711 5.598,3.262 1.754,1.66 4.238,5.856 7.453,12.586 1.859,3.832 8.59,18.379 20.191,43.652 l 38.836,87.606 c 4.238,9.633 13.309,31.07 27.184,64.312 l 10.097,0 66.328,-155.8 c 10.766,-25.274 17.911,-41.118 21.438,-47.535 1.969,-3.629 4.086,-6.012 6.367,-7.149 2.375,-1.137 7.66,-1.762 15.844,-1.859 l 0,-10.567 c -16.152,1.035 -27.445,1.547 -33.863,1.551 l -50.02,-1.551 0,10.567 c 11.598,0.199 18.641,0.566 21.129,1.082 2.484,0.519 4.141,1.242 4.973,2.179 0.925,1.032 1.394,2.274 1.394,3.723 0,2.277 -0.726,5.231 -2.172,8.859 l -19.105,47.532 -89.945,0 -16.926,-39.922 c -3.008,-7.145 -4.508,-12.379 -4.508,-15.692 0,-1.449 0.41,-2.64 1.238,-3.574 1.141,-1.347 2.903,-2.277 5.285,-2.793 3.828,-0.828 10.559,-1.297 20.196,-1.394 l 0,-10.567 c -17.504,0.934 -30.602,1.403 -39.301,1.403 -10.051,0 -21.027,-0.469 -32.93,-1.403 l 0,0"
             inkscape:connector-curvature="0"
             id="path44"
             style="fill:#918f90;fill-opacity:1;fill-rule:evenodd;stroke:none" /><path
             d="m 568.594,534.359 0,9.95 c 10.871,-0.422 21.277,-0.625 31.218,-0.625 10.047,0 19.676,0.203 28.895,0.625 9.109,-20.719 17.445,-38.895 25.008,-54.528 l 58.875,-121.164 53.125,111.067 c 14.488,30.238 24.18,51.777 29.047,64.625 10.976,-0.422 20.242,-0.625 27.804,-0.625 6.938,0 18.164,0.203 33.707,0.625 l 0,-9.95 c -12.324,-0.203 -19.832,-0.773 -22.523,-1.707 -2.594,-0.832 -4.402,-2.015 -5.438,-3.57 -1.347,-2.074 -2.124,-7.098 -2.332,-15.066 -0.105,-2.078 -0.359,-16.778 -0.777,-44.118 l 0,-71.918 c 0,-14.089 0.207,-27.808 0.625,-41.168 0.309,-9.839 1.031,-15.691 2.176,-17.554 1.238,-1.86 3.152,-3.262 5.746,-4.196 2.691,-0.828 10.199,-1.347 22.523,-1.55 l 0,-9.942 c -20.921,0.934 -35.675,1.403 -44.269,1.403 -6.942,0 -22.27,-0.469 -45.981,-1.403 l 0,9.942 c 12.321,0.203 19.832,0.722 22.524,1.55 2.687,0.934 4.5,2.18 5.437,3.731 1.344,2.066 2.121,7.09 2.328,15.07 0.106,2.172 0.36,16.875 0.778,44.117 l 0,114.012 -53.594,-112.148 c -8.383,-17.508 -14.961,-31.59 -19.723,-42.254 -3.421,-7.766 -8.597,-20.094 -15.535,-36.969 l -6.054,0 c -1.356,3.93 -2.594,7.09 -3.731,9.477 l -10.562,22.519 -74.254,154.25 0,-108.887 c 0,-14.089 0.207,-27.808 0.625,-41.168 0.308,-9.839 1.031,-15.691 2.176,-17.554 1.238,-1.86 3.152,-3.262 5.746,-4.196 2.687,-0.828 10.195,-1.347 22.523,-1.55 l 0,-9.942 -37.437,1.246 -38.676,-1.246 0,9.942 c 12.218,0.203 19.672,0.722 22.363,1.55 2.691,0.934 4.555,2.18 5.598,3.731 1.238,2.066 2.015,7.09 2.328,15.07 0.101,2.172 0.305,16.875 0.621,44.117 l 0,71.918 c 0,14.082 -0.156,27.852 -0.465,41.317 -0.312,9.84 -1.09,15.637 -2.336,17.398 -1.137,1.867 -3.055,3.207 -5.746,4.039 -2.59,0.934 -10.043,1.504 -22.363,1.707 l 0,0"
             inkscape:connector-curvature="0"
             id="path46"
             style="fill:#918f90;fill-opacity:1;fill-rule:nonzero;stroke:none" /><path
             d="m 920.688,534.359 0,9.95 c 20.816,-0.625 37.281,-0.938 49.402,-0.938 8.074,0 16.668,0.102 25.785,0.313 l 24.385,0.773 c 2.69,0.105 5.17,0.152 7.45,0.156 16.47,0 29.41,-1.816 38.84,-5.433 9.42,-3.629 16.77,-9.43 22.06,-17.399 5.28,-7.875 7.92,-16.883 7.92,-27.031 0,-9.113 -2.23,-18.172 -6.68,-27.18 -4.35,-9.011 -10.71,-16.675 -19.1,-22.996 -8.39,-6.211 -17.15,-10.668 -26.26,-13.351 -6.21,-1.868 -13.25,-2.801 -21.12,-2.801 -6.63,0 -13.78,0.723 -21.44,2.176 l -3.262,11.496 c 9.212,-2.074 16.462,-3.11 21.752,-3.11 7.76,0 15.11,1.868 22.05,5.59 7.04,3.836 12.48,9.528 16.31,17.09 3.93,7.664 5.9,16.106 5.91,25.32 0,8.907 -1.92,16.926 -5.75,24.082 -3.73,7.246 -9.48,12.727 -17.24,16.465 -7.67,3.723 -16.99,5.59 -27.96,5.59 -9.84,0 -20.404,-1.762 -31.689,-5.285 -0.934,-10.981 -1.403,-28.168 -1.403,-51.57 l 0,-78.286 c 0,-14.089 0.157,-27.808 0.469,-41.168 0.309,-9.839 1.031,-15.691 2.176,-17.554 1.238,-1.86 3.152,-3.262 5.746,-4.196 2.691,-0.828 10.199,-1.347 22.521,-1.55 l 0,-9.942 c -19.158,0.825 -33.24,1.239 -42.248,1.246 -3.527,0 -19.734,-0.421 -48.624,-1.246 l 0,9.942 c 12.222,0.203 19.671,0.722 22.371,1.55 2.687,0.934 4.554,2.18 5.593,3.731 1.243,2.066 2.016,7.09 2.328,15.07 0.098,2.172 0.305,16.875 0.622,44.117 l 0,71.918 c 0,14.082 -0.157,27.852 -0.469,41.317 -0.309,9.84 -1.082,15.637 -2.328,17.398 -1.137,1.867 -3.059,3.207 -5.746,4.039 -2.59,0.934 -10.047,1.504 -22.371,1.707 l 0,0"
             inkscape:connector-curvature="0"
             id="path48"
             style="fill:#918f90;fill-opacity:1;fill-rule:nonzero;stroke:none" /><path
             d="m 1157.84,534.359 0,9.95 c 16.88,-0.836 32.57,-1.247 47.06,-1.247 14.71,0 29.31,0.411 43.81,1.247 l 0,-9.95 c -12.23,-0.203 -19.68,-0.773 -22.36,-1.707 -2.7,-0.832 -4.51,-2.015 -5.44,-3.57 -1.35,-2.074 -2.18,-7.098 -2.49,-15.066 -0.1,-2.078 -0.3,-16.778 -0.62,-44.118 l 0,-57.476 c 0,-22.266 1.4,-36.969 4.19,-44.117 2.9,-7.039 7.45,-12.891 13.67,-17.551 4.76,-3.524 11.19,-6.367 19.26,-8.543 8.08,-2.074 17.09,-3.106 27.03,-3.106 11.6,0 21.9,1.399 30.92,4.196 9.01,2.894 15.73,6.363 20.19,10.406 4.56,4.141 7.92,8.746 10.09,13.824 2.28,5.071 3.88,12.012 4.82,20.813 1.03,8.902 1.55,20.144 1.55,33.711 l 0,47.843 c 0,14.082 -0.2,27.852 -0.61,41.317 -0.22,9.84 -0.94,15.637 -2.18,17.398 -1.14,1.867 -3.06,3.207 -5.75,4.039 -2.69,0.934 -10.15,1.504 -22.37,1.707 l 0,9.95 c 17.09,-0.836 29.56,-1.247 37.43,-1.247 7.15,0 20.04,0.411 38.69,1.247 l 0,-9.95 c -12.33,-0.203 -19.84,-0.773 -22.52,-1.707 -2.6,-0.832 -4.41,-2.015 -5.44,-3.57 -1.24,-2.074 -2.02,-7.098 -2.34,-15.066 -0.09,-2.078 -0.3,-16.778 -0.61,-44.118 l 0,-52.035 c 0,-25.582 -1.82,-43.449 -5.44,-53.593 -3.53,-10.153 -10.05,-19.11 -19.57,-26.872 -7.15,-5.8 -16.37,-10.308 -27.65,-13.515 -11.19,-3.207 -23.61,-4.809 -37.28,-4.817 -15.95,0 -29.78,1.868 -41.48,5.594 -11.7,3.828 -20.61,8.797 -26.72,14.91 -6.11,6.211 -10.3,12.532 -12.57,18.95 -2.91,8.492 -4.36,22.73 -4.36,42.722 l 0,68.656 c 0,14.082 -0.16,27.852 -0.46,41.317 -0.31,9.84 -1.09,15.637 -2.33,17.398 -1.15,1.867 -3.06,3.207 -5.75,4.039 -2.59,0.934 -10.05,1.504 -22.37,1.707 l 0,0"
             inkscape:connector-curvature="0"
             id="path50"
             style="fill:#918f90;fill-opacity:1;fill-rule:nonzero;stroke:none" /><path
             d="m 1457.9,331.184 c 1.65,9.937 2.64,26.043 2.95,48.308 l 10.57,0 c 0.51,-15.121 1.34,-24.078 2.49,-26.875 1.24,-2.691 4.13,-5.59 8.69,-8.695 4.55,-3.106 10.66,-5.902 18.33,-8.391 7.66,-2.383 15.06,-3.574 22.21,-3.574 10.46,0 20.09,2.379 28.89,7.148 8.81,4.864 15.23,11.18 19.27,18.954 4.03,7.863 6.05,16.253 6.05,25.164 0,6.832 -1.03,12.734 -3.1,17.707 -1.97,4.968 -5.02,8.953 -9.17,11.961 -4.14,3.105 -9.27,5.277 -15.37,6.523 -3.84,0.621 -11.5,1.656 -22.99,3.106 -11.51,1.445 -21.29,3.05 -29.37,4.816 -10.77,3.309 -18.69,7.195 -23.76,11.648 -5.07,4.454 -9.21,10.305 -12.43,17.555 -3.1,7.246 -4.66,15.063 -4.66,23.457 0,12.215 3.16,23.711 9.48,34.481 6.41,10.875 15.84,19.312 28.27,25.324 12.53,6.004 26.09,9.004 40.7,9.008 8.8,0 18.38,-1.196 28.73,-3.575 10.46,-2.281 20.2,-5.644 29.21,-10.093 -1.45,-6.528 -2.49,-12.637 -3.1,-18.329 -0.63,-5.597 -1.1,-13.882 -1.4,-24.859 l -10.57,0 c -0.31,15.949 -0.78,24.649 -1.39,26.098 -2.6,3.73 -6.12,7.097 -10.57,10.097 -10.67,6.008 -21.8,9.004 -33.4,9.012 -15.02,0 -27.03,-4.617 -36.03,-13.824 -8.91,-9.117 -13.36,-20.973 -13.36,-35.57 0,-8.809 1.6,-15.645 4.81,-20.508 3.21,-4.766 8.96,-8.594 17.25,-11.496 5.69,-1.973 15.01,-3.832 27.96,-5.59 12.94,-1.66 24.59,-3.473 34.95,-5.442 9.72,-2.898 16.92,-6.367 21.59,-10.402 4.66,-3.937 8.49,-9.168 11.49,-15.691 3,-6.426 4.51,-13.977 4.51,-22.68 0,-20.609 -8.55,-38.578 -25.63,-53.902 -17.09,-15.325 -39.2,-22.981 -66.33,-22.989 -20.51,0 -39.1,4.039 -55.77,12.118 l 0,0"
             inkscape:connector-curvature="0"
             id="path52"
             style="fill:#918f90;fill-opacity:1;fill-rule:nonzero;stroke:none" /><path
             d="m 1920.18,445.355 c 0,-9.835 0.97,-19.832 2.95,-29.98 1.97,-10.148 4.45,-18.898 7.46,-26.254 4.97,-12.426 11.43,-22.887 19.41,-31.375 8.08,-8.391 17.03,-14.601 26.88,-18.641 9.94,-3.937 20.91,-5.902 32.92,-5.902 16.67,0 31.18,4.039 43.5,12.113 12.32,8.18 21.49,19.622 27.49,34.332 6.11,14.805 9.17,31.836 9.17,51.106 0,16.465 -2.18,31.633 -6.52,45.512 -2.7,8.492 -6.27,16.152 -10.73,22.992 -4.45,6.933 -9.78,12.941 -15.99,18.019 -6.11,5.176 -14.09,9.524 -23.93,13.047 -9.83,3.52 -20.46,5.278 -31.83,5.281 -16.47,0 -30.92,-3.679 -43.34,-11.031 -12.43,-7.351 -21.81,-18.015 -28.13,-31.996 -6.21,-13.883 -9.31,-29.625 -9.31,-47.223 l 0,0 z m -32.31,-12.894 c 0,16.359 2.42,31.48 7.3,45.355 4.97,13.879 13.15,26.36 24.54,37.442 11.39,11.074 24.28,19.41 38.68,25.008 14.39,5.691 30.86,8.539 49.39,8.543 17.09,0 32.63,-2.438 46.6,-7.301 13.99,-4.766 25.42,-11.137 34.34,-19.106 9,-7.875 16.09,-16.519 21.28,-25.941 3.93,-7.047 7.03,-15.332 9.32,-24.856 2.38,-9.531 3.57,-19.726 3.57,-30.597 0,-34.903 -11.76,-63.953 -35.26,-87.145 -23.41,-23.199 -52.97,-34.789 -88.69,-34.797 -16.26,0 -31.44,2.637 -45.52,7.922 -14.09,5.282 -26,13.094 -35.72,23.457 -9.75,10.453 -17.15,23.09 -22.22,37.899 -5.08,14.914 -7.61,29.621 -7.61,44.117 l 0,0"
             inkscape:connector-curvature="0"
             id="path54"
             style="fill:#918f90;fill-opacity:1;fill-rule:evenodd;stroke:none" /><path
             d="m 2185.91,534.359 0,9.95 c 15.74,-0.625 29.09,-0.938 40.08,-0.938 7.76,0 21.69,0.203 41.78,0.625 20.09,0.41 33.66,0.613 40.7,0.617 7.56,0 14.44,-0.105 20.66,-0.304 6.31,-0.11 12.01,-0.368 17.08,-0.782 -2.59,-8.804 -4.24,-24.492 -4.97,-47.066 l -9.78,0 c -0.93,12.527 -2.23,22.156 -3.88,28.891 -5.39,1.867 -12.07,3.207 -20.04,4.039 -7.87,0.933 -17.04,1.402 -27.5,1.402 -10.46,0 -21.28,-0.625 -32.46,-1.867 -0.63,-5.59 -1.05,-10.824 -1.24,-15.688 -0.11,-2.797 -0.37,-14.66 -0.78,-35.57 l 0,-34.488 c 11.6,-0.309 21.84,-0.465 30.76,-0.465 13.14,0 23.65,0.668 31.53,2.015 3,0.52 4.91,1.348 5.74,2.489 0.94,1.242 1.92,5.644 2.95,13.203 l 1.25,9.633 9.79,0 -1.1,-35.414 1.1,-38.063 -9.79,0 -1.09,9.942 c -1.14,11.289 -1.97,17.343 -2.48,18.171 -0.83,1.454 -2.8,2.536 -5.91,3.262 -5.9,1.348 -19.26,2.02 -40.08,2.024 -7.35,0 -14.91,-0.211 -22.67,-0.622 l 0,-31.375 c 0,-14.089 0.2,-27.808 0.62,-41.168 0.21,-9.839 0.88,-15.691 2.01,-17.554 1.25,-1.86 3.22,-3.262 5.91,-4.196 2.69,-0.828 10.15,-1.347 22.37,-1.55 l 0,-9.942 c -13.16,0.825 -26.26,1.239 -39.3,1.246 -11.7,0 -28.79,-0.421 -51.26,-1.246 l 0,9.942 c 12.22,0.203 19.68,0.722 22.37,1.55 2.69,0.934 4.55,2.18 5.59,3.731 1.25,2.066 2.02,7.09 2.33,15.07 0.1,2.172 0.3,16.875 0.62,44.117 l 0,71.918 c 0,14.082 -0.16,27.852 -0.46,41.317 -0.32,9.84 -1.1,15.637 -2.34,17.398 -1.13,1.867 -3.05,3.207 -5.74,4.039 -2.6,0.934 -10.05,1.504 -22.37,1.707 l 0,0"
             inkscape:connector-curvature="0"
             id="path56"
             style="fill:#918f90;fill-opacity:1;fill-rule:nonzero;stroke:none" /></g></g></g></g></svg>