<?xml version="1.0" encoding="utf-8"?>
<!-- Generator: Adobe Illustrator 24.3.0, SVG Export Plug-In . SVG Version: 6.00 Build 0)  -->
<svg version="1.1" id="Ebene_1" xmlns="http://www.w3.org/2000/svg" xmlns:xlink="http://www.w3.org/1999/xlink" x="0px" y="0px"
	 viewBox="0 0 1053 183.9" style="enable-background:new 0 0 1053 183.9;" xml:space="preserve">
<style type="text/css">
	.st0{fill:#048CAA;}
</style>
<g>
	<path class="st0" d="M1010.5,146.8V41.3h-8.3v93.3l-67.4-93.3h-9.7v105.5h8.5V53.3l67.2,93.5H1010.5z M872.8,111.7h-49.9L847.6,52
		L872.8,111.7z M896.4,146.8L851.9,41.3h-8.3l-44,105.5h8.8l11.4-27.8h56.1l11.8,27.8H896.4z M774.2,114.5
		c-0.3,3.9-1.4,7.4-3.1,10.7c-1.7,3.3-4,6.1-6.8,8.5c-2.8,2.4-6.1,4.2-9.9,5.5c-3.8,1.3-8,1.9-12.6,1.9c-9.7,0-17.8-3-24.2-9.1
		c-2.6-2.5-4.7-5.3-6.1-8.3c-1.5-3.1-2.6-6.3-3.4-9.7c-0.8-3.4-1.2-6.8-1.4-10.2c-0.2-3.4-0.2-6.7-0.2-9.9c0-3.2,0.1-6.5,0.2-9.9
		c0.2-3.4,0.6-6.8,1.3-10.1c0.7-3.3,1.8-6.5,3.3-9.6c1.5-3.1,3.5-5.9,6.1-8.3c3.2-2.9,6.7-5.1,10.6-6.7c3.9-1.6,8.5-2.4,13.7-2.4
		c4.6,0,8.8,0.6,12.6,1.9c3.8,1.3,7.1,3.1,9.9,5.5c2.8,2.4,5,5.2,6.8,8.5c1.7,3.3,2.8,6.8,3.1,10.7h8.8c-0.4-4.9-1.7-9.4-3.9-13.5
		c-2.2-4.2-5.1-7.8-8.7-10.9c-3.6-3.1-7.8-5.5-12.7-7.2c-4.9-1.7-10.2-2.6-15.9-2.6c-5.6,0-11,1-16.4,3c-5.4,2-10.1,4.8-14.1,8.5
		c-3.2,2.9-5.6,6-7.4,9.5c-1.8,3.4-3.1,7-4,10.8c-0.9,3.8-1.4,7.6-1.7,11.5c-0.3,3.9-0.4,7.7-0.4,11.5c0,3.8,0.1,7.6,0.4,11.5
		c0.3,3.9,0.8,7.7,1.7,11.5c0.9,3.7,2.2,7.3,4,10.8c1.8,3.5,4.3,6.6,7.4,9.5c4,3.7,8.8,6.5,14.1,8.5c5.4,2,10.9,3,16.4,3
		c5.8,0,11.1-0.9,15.9-2.6c4.8-1.7,9.1-4.1,12.7-7.2c3.6-3.1,6.5-6.7,8.7-10.9c2.2-4.2,3.5-8.7,3.9-13.5H774.2z M660,111.7h-49.9
		L634.8,52L660,111.7z M683.6,146.8L639.1,41.3h-8.3l-44,105.5h8.8L607,119h56.1l11.8,27.8H683.6z M547.4,88.8
		c-5.3,3.9-12.7,5.9-22.3,5.9h-25.9V48.6h25.9c9.6,0,17,2,22.3,5.9c5.3,3.9,7.9,9.7,7.9,17.2C555.3,79.2,552.7,84.9,547.4,88.8
		 M561.6,59.2c-1.7-3.7-4.2-6.9-7.5-9.6c-3.3-2.7-7.4-4.7-12.3-6.2c-4.9-1.4-10.4-2.2-16.8-2.2h-34.4v105.5h8.5v-45h32.4l22.7,45
		h9.3l-23.6-46.9c7.3-1.8,13.1-5.2,17.5-10.3c4.4-5.1,6.5-11.1,6.5-18C564.2,67.1,563.3,62.9,561.6,59.2 M427.1,109.3h-33l16.5-44.5
		L427.1,109.3z M463.2,146.8L422.5,41.3h-23.1l-40.7,105.5H380l7.5-20.2h46.1l7.5,20.2H463.2z M361.7,59.2V41.3h-89.8v17.9h34.3
		v87.7h21.1V59.2H361.7z M237.3,109.3h-33l16.5-44.5L237.3,109.3z M273.5,146.8L232.8,41.3h-23.1L169,146.8h21.3l7.5-20.2h46.1
		l7.5,20.2H273.5z"/>
	<polygon class="st0" points="149.6,146.8 149.6,41.3 122.6,41.3 96,96.6 69.5,41.3 41.1,41.3 41.1,146.8 61.5,146.8 61.5,70.6 
		87.5,126.3 103,126.3 129.1,71.5 129.1,146.8 	"/>
</g>
</svg>
